<svg width="512" height="512" xmlns="http://www.w3.org/2000/svg">
 <g>
  <title>background</title>
  <rect fill="none" id="canvas_background" height="514" width="514" y="-1" x="-1"/>
 </g>

 <g>
  <title>Layer 1</title>
  <g id="svg_1">
   <path id="svg_2" d="m248.682,340.498l0,-0.027c-0.646,-1.771 -2.775,-6.691 -4.658,-11.068c-0.762,4.205 -2.858,15.676 -2.834,18.619l-0.063,1.115l-4.458,2.916l-3.503,0.402l-0.185,0l-1.373,3.453c-2.015,5.922 -5.035,12.043 -2.931,18.02c7.037,-5.461 16.257,-11.895 26.829,-17.615c-1.46,-2.66 -2.776,-5.402 -3.946,-8.211l-2.878,-7.604" fill="#18509D"/>
   <path id="svg_3" d="m170.111,248.783c7.479,9.607 14.109,19.533 19.895,29.769l0.021,-0.225l1.376,-1.749l1.533,0.801l1.341,2.23l2.346,2.149l3.336,0.997l2.727,0.803l4.65,2.715l2.057,2.544l3.021,2.203c5.172,3.003 11.32,4.231 17.3,4.2c2.873,-4.661 7.204,-8.122 13.913,-7.807c4.945,0.197 8.252,2.373 11.094,5.404c9.279,-1.746 16.928,-7.121 23.424,-13.67l3.875,-3.746l-3.545,-4.688l-5.45,0.115l-4.833,-0.976l-2.658,-3.23l-0.059,-2.346l-1.672,-1.541l0.057,-1.66l0.643,-0.658l-0.23,-0.199l-1.143,-1.947l0.846,-2.023l-0.873,-0.889l-1.902,-2.461l4.176,-4.801l1.301,-3.148l-0.617,-4.432l0.061,-2.288l-3.602,2.058c2.186,-3.115 1.869,-4.03 1.844,-6.631c-0.271,-3.203 2.659,-5.861 2.741,-5.889l-4.001,1.484c0.469,-7.664 7.881,-6.576 7.823,-6.661c-3.435,-2.315 -3.405,-5.749 -3.375,-5.804l3.133,2.342l4.389,0.885l4.456,-0.484l5.967,-1.2c10.813,-3.173 17.433,2.347 17.457,2.431l-0.844,-3.716l2.332,2.862l7.392,5.346l3.775,6.207c4.249,-0.543 5.419,2.945 5.589,3.573c-3.043,-2.003 -2.656,4.003 -2.602,5.376c0.056,2.658 0.056,5.35 -0.533,7.951c-1.368,5.922 -5.715,11.125 -10.982,14.038l-3.243,2.749l0,0.969l1.778,-0.688l5.414,0.857l1.259,4.371l2.559,2.637l1.848,2.143l4.028,6.35c1.644,3.201 2.937,6.604 3.935,10.035c1.371,4.635 2.245,9.441 2.831,14.272c0.442,3.688 0.704,7.438 0.802,11.149l-0.025,5.065c9.063,-10.093 16.771,-21.249 22.803,-33.43c11.124,-22.392 16.573,-47.329 16.743,-72.294c0.722,-95.744 -72.708,-181.31 -189.484,-160.66c-21.09,3.745 -41.908,11.811 -60.357,22.588c-19.748,11.557 -37.46,27.138 -50.486,45.986c-6.771,9.783 -12.777,20.134 -17.982,30.887c14.672,6.836 36.892,18.588 60.195,35.631c23.747,17.362 44.08,36.781 60.412,57.769" fill="#18509D"/>
   <path id="svg_4" d="m204.412,302.608l-2.533,0.143l2.676,6.637l1.012,-1.43l5.077,0.881c4.134,2.919 8.522,3.865 13.201,3.293l1.5,-5.459l-6.505,-2.007l-7.607,-2.058l-6.821,0" fill="#18509D"/>
   <path id="svg_5" d="m257.063,25.036c-50.346,0 -96.904,16.16 -134.797,43.556l1.431,-0.342c10.638,-6.777 22.291,-12.27 33.886,-17.073c3.518,-1.427 7.047,-2.804 10.625,-4.092c35.029,-12.468 72.863,-16.042 109.139,-9.695c14.228,2.488 28.199,6.522 41.583,12.038c39.066,16.076 73.655,44.557 93.858,81.963c22.136,40.925 29.458,91.111 17.463,136.271c-7.067,26.623 -20.684,51.244 -38.638,72.037c-18.476,21.391 -41.553,38.834 -67.151,50.9c-26.203,12.352 -55.044,18.988 -84.029,19.102l-2.342,7.723l-0.56,2.143l-4.634,1.66l-3.018,-0.287c-2.075,2.52 -4.002,5.207 -5.232,7.891l-0.158,0.256c-2.187,4.75 -3.532,7.607 -1.93,11.611l0.527,4.465l-1.673,3.914l-4.302,0.945c-3.103,0.113 -6.031,0.229 -8.867,1.602l-0.057,0.033c-3.461,1.602 -6.764,3.686 -10.393,4.92c-3.493,1.197 -7.535,1.773 -10.87,-0.203l-1.673,-1.055l-1.697,-0.377l-4.092,-2.627l0.313,-2.803l2.488,-0.855l2.115,0.254l3.746,-0.803l6.207,-4.344l5.892,-5.117l4.062,-3.547c1.672,-1.572 4.806,-4.691 7.646,-9.781c0.762,-1.342 2.189,-4.977 3.363,-8.779l-1.104,-0.773l-2.646,-4.113l1.5,-3.637c-47.242,-6.174 -75.055,-27.135 -74.965,-27.107c15.342,3.66 31.473,5.148 47.729,4.635l-0.816,-1.115l-0.324,-1.857l0.781,-1.746l0.359,-0.262l0.972,0l4.476,0.201l3.131,-0.459l1.617,-0.426l2.602,-0.834l2.375,-1.229l5.416,-4.092c3.105,-3.031 5.178,-4.834 7.467,-8.492l0.412,-0.883c1.732,-4.494 2.834,-9.205 3.808,-13.758l0.557,-2.801l-0.298,-0.176l-3.02,-5.205l1.388,-3.318l2.015,-7.176c0.731,-2.889 1.455,-5.719 2.199,-8.607l-3.043,0.771l-7.175,3.861l1.728,6.434l-0.39,2.514l-2.097,1.52l-0.799,0.086l-0.147,0l-3.131,-2.521c-0.671,-2.654 -1.431,-5.346 -2.199,-7.977l-0.961,-1.115c-2.901,0.061 -3.69,-1.971 -3.897,-2.857l-0.063,-0.031c-3.075,-1.285 -2.629,-4.318 -2.629,-4.318l-1.877,-2.004l3.246,-5.146l0.945,-0.23c-1.23,-3.23 -2.546,-6.491 -3.934,-9.723l-2.801,-2.112l-2.988,-2.833c-3.019,-0.23 -3.289,-4.149 -3.289,-4.149l-2.071,-2.916l1.957,-2.003l0.027,0l2.03,-0.831c-6.363,-12.068 -13.91,-23.706 -22.605,-34.888c-16.674,-21.439 -36.377,-40.746 -58.568,-57.418c-19.6,-14.73 -39.652,-26.769 -58.867,-35.373c-3.632,7.949 -6.823,16.158 -9.523,24.48c-7.137,22.076 -10.826,45.186 -11.1,68.348l0,2.516c0,127.203 103.14,230.359 230.332,230.359c127.226,0 230.37,-103.152 230.37,-230.359c-0.008,-127.236 -103.145,-230.359 -230.343,-230.359" fill="#18509D"/>
   <path id="svg_6" d="m282.354,309.041c-3.715,1.398 -8.051,2.801 -12.797,3.889c4.604,6.293 9.254,12.496 14.088,18.586l0,0.033l3.146,3.428c0.401,-2.832 0.701,-5.723 0.786,-8.604c0.143,-5.351 -1.673,-12.755 -5.065,-17.188l-0.158,-0.144" fill="#18509D"/>
  </g>
 </g>
</svg>